<?xml version="1.0" encoding="utf-8"?>
<!-- Generator: Adobe Illustrator 18.0.0, SVG Export Plug-In . SVG Version: 6.00 Build 0)  -->
<!DOCTYPE svg PUBLIC "-//W3C//DTD SVG 1.1//EN" "http://www.w3.org/Graphics/SVG/1.1/DTD/svg11.dtd">
<svg version="1.1" id="Layer_1" xmlns="http://www.w3.org/2000/svg" xmlns:xlink="http://www.w3.org/1999/xlink" x="0px" y="0px"
	 viewBox="0 327 612 134" enable-background="new 0 327 612 134" xml:space="preserve">
<g>
	<polygon fill="#FFFFFF" points="79,381.2 79,418 70.5,418 70.5,381.2 53.5,381.2 53.5,374 96.1,374 96.1,381.2 	"/>
	<polygon fill="#FFFFFF" points="161.6,387.8 161.6,418 154,418 154,374 161.6,374 190.7,403.4 190.7,374 198.4,374 198.4,418 
		191.6,418 	"/>
	<path fill="#FFFFFF" d="M241.8,406.7h-20.6l-5.5,11.3h-8l20.3-44.2h7.7l20.9,44.2h-9.1L241.8,406.7L241.8,406.7z M239.6,400.7
		l-8-15.6l-8,15.6H239.6L239.6,400.7z"/>
	<polygon fill="#FFFFFF" points="273.1,387.8 273.1,418 265.4,418 265.4,374 273.1,374 302.2,403.4 302.2,374 309.8,374 309.8,418 
		303,418 	"/>
	<polygon fill="#FFFFFF" points="343,381.2 343,418 334.5,418 334.5,381.2 317.5,381.2 317.5,374 360.1,374 360.1,381.2 	"/>
	<path fill="#FFFFFF" d="M402.9,394.9c5.5,1.9,8.2,5.2,8.2,10.4c0,4.1-1.4,7.1-4.1,9.3c-1.4,1.1-3,1.9-4.9,2.5
		c-1.9,0.5-4.1,0.8-6.9,0.8h-27.7V374h27.2c2.7,0,5.2,0.3,6.9,0.5c1.6,0.5,3,1.1,4.4,2.2c2.5,1.9,3.8,4.9,3.8,8.8
		C409.7,390,407.5,393,402.9,394.9L402.9,394.9z M376.3,391.6h17.6c2.7,0,4.7-0.3,5.8-1.1c1.4-0.8,1.9-2.2,1.9-4.1s-0.5-3.3-1.6-4.1
		c-1.1-0.8-3-1.1-5.8-1.1h-17.6v10.4H376.3z M376.3,410.8H393c3,0,5.5-0.5,6.9-1.4c1.6-0.8,2.5-2.5,2.5-4.7c0-2.2-0.8-3.8-2.5-4.7
		c-1.4-0.8-3.8-1.4-6.9-1.4h-16.7V410.8L376.3,410.8z"/>
	<path fill="#FFFFFF" d="M451.2,406.7h-20.6l-5.5,11.3h-8l20.3-44.2h7.7L466,418h-9.1L451.2,406.7L451.2,406.7z M449,400.7l-8-15.6
		l-8,15.6H449L449,400.7z"/>
	<path fill="#FFFFFF" d="M511.6,379.8l-3.8,6.9c-4.1-3.8-9.6-5.8-15.9-6c-2.2,0-4.4,0.3-6.3,0.8c-1.4,0.5-2.5,1.1-3.3,1.9
		c-0.8,0.8-1.4,1.9-1.4,2.7c0,1.6,1.1,2.7,3.3,3.3c1.1,0.3,3.3,0.5,6.6,1.1l5.2,0.5c3,0.3,5.5,0.8,7.1,1.4c1.9,0.5,3.6,1.4,4.9,2.2
		c1.4,1.1,2.5,2.5,3.3,4.1s1.1,3.6,1.1,5.5c0,3-0.8,5.8-2.7,8.2c-1.6,2.2-4.4,3.8-8.2,4.9c-2.7,0.8-5.8,1.1-9.1,1.1
		c-5.8,0-12.6-2.2-20.3-6.3l3-7.4c1.6,1.4,4.4,2.7,8,4.1c3.8,1.4,6.9,1.9,9.6,1.9c3,0,5.5-0.5,7.7-1.4c1.1-0.5,2.2-1.4,3-2.2
		c0.8-0.8,1.1-1.9,1.1-2.7c0-1.4-0.8-2.5-2.7-3c-1.1-0.5-3.3-0.8-6.9-1.1l-4.9-0.5c-3.3-0.3-5.8-0.5-6.9-1.1
		c-1.4-0.3-2.7-0.8-4.1-1.4c-1.9-1.1-3.3-2.5-4.4-4.4c-0.8-1.6-1.4-3.8-1.4-6c0-3.8,1.1-6.9,3.6-9.3c3.3-3.3,8.2-4.7,14.8-4.7
		c2.7,0,5.8,0.3,9.1,1.1C503.6,375.1,507.2,377.1,511.6,379.8L511.6,379.8z"/>
	<path fill="#67BE8E" d="M105.1,418v-7.7h38.4v7.7h-30.2H105.1L105.1,418z M105.1,381.7V374h38.4v7.7h-30.2H105.1L105.1,381.7z
		 M105.1,399.8v-7.7h38.4v7.7h-30.2H105.1L105.1,399.8z"/>
	<path fill="#67BE8E" d="M520.3,418v-7.7h38.4v7.7h-29.9H520.3L520.3,418z M520.3,381.7V374h38.4v7.7h-29.9H520.3L520.3,381.7z
		 M520.3,399.8v-7.7h38.4v7.7h-29.9H520.3L520.3,399.8z"/>
</g>
</svg>
